# xmcd
#
# Track frame offsets:
#	183
#	11998
#	22928
#	32975
#	44533
#	56640
#	70300
#	83483
#	94290
#	105438
#	131648
#	143220
#	157683
#	169835
#	178123
#	191208
#	204673
#	216798
#
# Disc length: 3055 seconds
#
# Revision: 1
# Processed by: cddbd v1.5.2PL0 Copyright (c) Steve Scherf et al.
# Submitted via: audiograbber 1.83.01
#
DISCID=000bed12
DTITLE=Verschiedene - Country Gospel - CD 01
DYEAR=1900
DGENRE=Country
TTITLE0=George Jones - Old Brush Arbors
TTITLE1=Patsy Cline - He Will Do For You
TTITLE2=George Jones - If You Want To Wear A Crown
TTITLE3=Jim Reeves - When God Dips His Love In My Heart
TTITLE4=George Jones - Wanderin' Soul
TTITLE5=Roy Acuff - The Great Speckle Bird
TTITLE6=George Jones - Taggin' Along
TTITLE7=Carl Perkins - Daddy Sang Bass
TTITLE8=George Jones - Won't It Be Wounderful There
TTITLE9=Jerry Lee Lewis - A Picture From Life's Other Side
TTITLE10=George Jones - Where We Never Grow Old
TTITLE11=Sons Of The Pioneers - There's A Round-Up In The Sky
TTITLE12=George Jones - Small Time Labouring Man
TTITLE13=Tennessie Ernie Ford - Sunday Down In Tennessee
TTITLE14=George Jones - Sweeter Than Flowers
TTITLE15=Patsy Cline - Life's Railway To Heaven
TTITLE16=George Jones - Bringing At Home
TTITLE17=Roy Acuff - Wreck On The Highway
EXTD=
EXTT0=
EXTT1=
EXTT2=
EXTT3=
EXTT4=
EXTT5=
EXTT6=
EXTT7=
EXTT8=
EXTT9=
EXTT10=
EXTT11=
EXTT12=
EXTT13=
EXTT14=
EXTT15=
EXTT16=
EXTT17=
PLAYORDER=
